<svg xmlns="http://www.w3.org/2000/svg" viewBox="0 0 319.33 64.8"><defs><style>.cls-1{fill:#fff;}</style></defs><g id="Layer_2" data-name="Layer 2"><g id="Layer_1-2" data-name="Layer 1"><path class="cls-1" d="M48,0H70.05a3.53,3.53,0,0,1,1.08.15.6.6,0,0,1,.34.72,3.86,3.86,0,0,1-.19.54c-.31.74-.63,1.48-1,2.22,0,.11-.1.22-.15.33a1,1,0,0,1-1,.65H50.44l-25.73,0c-.41,0-.81,0-1.21,0a2,2,0,0,0-2.09,1.68c-.16.57-.28,1.16-.48,1.71-.38,1-.8,2.09-1.2,3.13a3.52,3.52,0,0,0-.2.6.53.53,0,0,0,.5.7,4.34,4.34,0,0,0,.72,0h5.63a6.17,6.17,0,0,1,1.13.1,3.2,3.2,0,0,1,2.7,2.83A6.68,6.68,0,0,1,30,18.55c-.14.47-.31.95-.49,1.41L23.29,36.11q-2.58,6.72-5.15,13.43L13.34,62c-.07.18-.15.35-.22.53a1.51,1.51,0,0,1-1.5,1,2.62,2.62,0,0,0-.28,0l-10.12,0a2.22,2.22,0,0,1-.85-.08A.46.46,0,0,1,0,62.78a5.53,5.53,0,0,1,.37-.92l3.15-6.39,7.5-15.28q3.07-6.27,6.13-12.54c1.14-2.33,2.3-4.64,3.44-7A4.21,4.21,0,0,0,20.9,20a.74.74,0,0,0-.41-1,4.26,4.26,0,0,0-1.23-.36,15.58,15.58,0,0,0-2.05-.15,7.79,7.79,0,0,1-2-.29,4.51,4.51,0,0,1-2-1.12A3.77,3.77,0,0,1,12,13.71,5,5,0,0,1,12.59,12C13.82,9.78,15,7.48,16.33,5.31a24.7,24.7,0,0,1,1.52-2.16,9.18,9.18,0,0,1,1.73-1.68A6.55,6.55,0,0,1,22.46.31,10.47,10.47,0,0,1,24.52,0c1.92.12,3.85,0,5.77,0Z"/><path class="cls-1" d="M52.37,37.57H48A3,3,0,0,0,45.41,39l-.29.45c-2.15,3.36-4.26,6.75-6.53,10-1.47,2.13-3,4.23-4.66,6.21A23.8,23.8,0,0,1,25.87,62a14.5,14.5,0,0,1-4.65,1.28,46.14,46.14,0,0,1-5.64.14,1.52,1.52,0,0,1-.42-.06.42.42,0,0,1-.28-.51,10.06,10.06,0,0,1,.41-1.17c.22-.57.29-.67.48-1.16.45-1.14.66-1.38,1.7-1.38h1.4c.69,0,1.23,0,1.86,0a7.75,7.75,0,0,0,4.38-1.41c.38-.25.75-.51,1.1-.79A30,30,0,0,0,31,52.09a42.22,42.22,0,0,0,5.52-9.28c3.23-7.19,6.17-14.5,9.14-21.81.79-1.95,1.6-3.91,2.4-5.86a7.25,7.25,0,0,1,.68-1.33,4.37,4.37,0,0,1,2.45-1.74,7.34,7.34,0,0,1,2-.29H67.43A1.49,1.49,0,0,0,68.76,11a4.68,4.68,0,0,0,.3-.64l2.34-5.2C71.89,4,72.4,3,72.9,1.89c.06-.13.12-.26.19-.38a1.81,1.81,0,0,1,1.74-1c2.23,0,4.46,0,6.7,0A3.45,3.45,0,0,1,82.72.7a1.2,1.2,0,0,1,.83,1.57A4.23,4.23,0,0,1,83,3.44c-.56,1-1.11,1.94-1.67,2.9L75.74,16a12.3,12.3,0,0,1-.86,1.31,5,5,0,0,1-4.78,2.09,23.14,23.14,0,0,0-2.63-.11c-3.61,0-5.29,0-8.91,0a8.41,8.41,0,0,0-2.18.28,5.17,5.17,0,0,0-3,2.18,7.43,7.43,0,0,0-.76,1.45q-.87,2.26-1.72,4.53a2.07,2.07,0,0,0-.13.4.61.61,0,0,0,.6.84,5.7,5.7,0,0,0,.71,0h8.7a2.24,2.24,0,0,1,.77.1.33.33,0,0,1,.25.44c-.11.31-.24.62-.37.92L60,33.75l-1.1,2.55a4.09,4.09,0,0,1-.23.52,1.4,1.4,0,0,1-1.21.76H52.37Z"/><path class="cls-1" d="M189,17.31a1.36,1.36,0,0,0,.56-.41,10.09,10.09,0,0,1,6.17-2.69,20.13,20.13,0,0,1,4.39.14c.84.09,1.68.18,2.52.32a4.21,4.21,0,0,1,3.09,2.24,6.79,6.79,0,0,1,.74,2.87,14.56,14.56,0,0,1-.35,3.78c-.79,3.77-1.61,7.54-2.41,11.31-.43,2-.85,4-1.27,6.06a7,7,0,0,1-.2.79,1.12,1.12,0,0,1-.9.8,3.08,3.08,0,0,1-.74.06c-.57,0-1.15-.08-1.72-.07-.74,0-1.49,0-2.24.07a2.22,2.22,0,0,1-.81-.06.65.65,0,0,1-.54-.7,3,3,0,0,1,.07-.66q1.2-5.5,2.39-11c.46-2.09.92-4.18,1.34-6.27a5.39,5.39,0,0,0,.1-2.3,2.27,2.27,0,0,0-1.4-1.7,5.56,5.56,0,0,0-2-.38,14.25,14.25,0,0,0-3.57.24,5.3,5.3,0,0,0-3.87,2.87,14.67,14.67,0,0,0-1.15,3.15c-.8,3.13-1.49,6.29-2.13,9.46-.38,1.93-.77,3.85-1.16,5.78a4.07,4.07,0,0,1-.13.5,1.37,1.37,0,0,1-1.49,1.09c-.28,0-.55,0-.82,0a15.11,15.11,0,0,0-2.69,0c-.32,0-.65,0-1,0a2.33,2.33,0,0,1-.59-.08.59.59,0,0,1-.46-.61,3.68,3.68,0,0,1,.11-.73l1.29-5.91q1.29-6,2.59-12,1.5-6.93,3-13.85c.39-1.8.82-3.59,1.07-5.42A2.34,2.34,0,0,1,185,3.3a1.14,1.14,0,0,1,1-.74c.33,0,.65,0,1,0a23.76,23.76,0,0,0,3.58-.06,2.29,2.29,0,0,1,.37,0c.67.09.9.36.9,1a6,6,0,0,1-.23,1.4q-1.22,5.66-2.44,11.3C189.1,16.58,189,16.92,189,17.31Z"/><path class="cls-1" d="M135.65,29.78h-8.07c-.12,0-.25,0-.37,0A1.32,1.32,0,0,0,125.8,31c-.06.29-.11.59-.15.88a17.5,17.5,0,0,0-.19,2.6,5.13,5.13,0,0,0,.17,1.11A2.06,2.06,0,0,0,126.84,37a5.61,5.61,0,0,0,1.66.41,24.64,24.64,0,0,0,5.43-.17,4.28,4.28,0,0,0,1-.26,3.34,3.34,0,0,0,2-2c.09-.23.15-.48.26-.7a1.34,1.34,0,0,1,1-.81,3.18,3.18,0,0,1,.81-.08l1.42.07a23.85,23.85,0,0,0,2.39-.07,2.19,2.19,0,0,1,.88.07.62.62,0,0,1,.46.61,2.59,2.59,0,0,1-.08.74,13.39,13.39,0,0,1-1.74,3.94,7.87,7.87,0,0,1-3.67,3,11.9,11.9,0,0,1-3,.75,51.8,51.8,0,0,1-8.35.32,19.52,19.52,0,0,1-4.55-.77,6.43,6.43,0,0,1-2.19-1.09,5.14,5.14,0,0,1-2-4,35.2,35.2,0,0,1,1.25-10.71,41,41,0,0,1,2-5.48,10,10,0,0,1,6.92-5.85,18.53,18.53,0,0,1,3.24-.51,45.23,45.23,0,0,1,5.82-.1,19.21,19.21,0,0,1,4.05.58,8.13,8.13,0,0,1,1,.31A5.14,5.14,0,0,1,146.2,19a8.11,8.11,0,0,1,.2,1.48,21,21,0,0,1-.38,4.67c-.19,1.1-.37,2.21-.56,3.31,0,.05,0,.1,0,.15-.18.9-.49,1.17-1.43,1.17-2.79,0-5.58,0-8.36,0ZM133,25.4h4.1a11.9,11.9,0,0,0,1.34-.09,1.19,1.19,0,0,0,1.11-1.11,12.65,12.65,0,0,0,.1-2.38c-.07-1.31-.45-1.75-1.72-2.08a15.81,15.81,0,0,0-6.88-.07,4,4,0,0,0-2.47,1.42,6.78,6.78,0,0,0-1.35,3.5.62.62,0,0,0,.56.75,4.52,4.52,0,0,0,.74.06Z"/><path class="cls-1" d="M245,29.78h-8.14a5,5,0,0,0-.67,0,1,1,0,0,0-.92.76,3.45,3.45,0,0,0-.12.43c-.14.84-.29,1.67-.4,2.51a5.34,5.34,0,0,0,.07,1.78,2.33,2.33,0,0,0,1.55,1.77,8,8,0,0,0,1.67.34,18.56,18.56,0,0,0,5.21-.18,4.39,4.39,0,0,0,1.49-.47,3,3,0,0,0,1.46-1.63c.07-.18.13-.37.19-.56A1.67,1.67,0,0,1,248,33.39a7.36,7.36,0,0,1,1,0,14.58,14.58,0,0,0,2.09,0,12.33,12.33,0,0,1,1.49,0c.78.06,1,.38.88,1.13a10.36,10.36,0,0,1-2.69,5.24,9.18,9.18,0,0,1-4.73,2.54,11.62,11.62,0,0,1-1.84.25,66.49,66.49,0,0,1-7.47.19A19.79,19.79,0,0,1,232,42a5.79,5.79,0,0,1-3-1.9,4.88,4.88,0,0,1-1.15-3.16,45.59,45.59,0,0,1,.31-6,35.32,35.32,0,0,1,1.51-6.68,31.33,31.33,0,0,1,1.91-4.46,9.36,9.36,0,0,1,6-4.86,20.21,20.21,0,0,1,3.45-.58,38.68,38.68,0,0,1,5.59-.17,24.41,24.41,0,0,1,4,.48,8,8,0,0,1,2.11.74,4.8,4.8,0,0,1,2.48,2.94,11,11,0,0,1,.36,4,44,44,0,0,1-1,6.26,2.83,2.83,0,0,1-.13.5,1,1,0,0,1-.85.63c-.25,0-.5,0-.75,0h-8Zm-2.46-4.38h4.71a3.23,3.23,0,0,0,.44,0,1,1,0,0,0,1-1.05c.05-.49.1-1,.14-1.48s0-.85,0-1.27a1.78,1.78,0,0,0-1.16-1.67,4.2,4.2,0,0,0-.85-.27,16,16,0,0,0-5.56-.13,7.49,7.49,0,0,0-1.74.42,4.28,4.28,0,0,0-2.42,2.1,7.38,7.38,0,0,0-.67,2.2,2.26,2.26,0,0,0,0,.45.66.66,0,0,0,.46.61,2,2,0,0,0,.81.1Z"/><path class="cls-1" d="M111.77,2.54h14a5.63,5.63,0,0,1,.82,0,.7.7,0,0,1,.68.88,3.1,3.1,0,0,1-.15.58A18.8,18.8,0,0,0,126.23,8c0,.13,0,.25,0,.37a1.21,1.21,0,0,1-1,1,5.21,5.21,0,0,1-.67.06L116,9.4c-.27,0-.55,0-.82,0a1,1,0,0,0-.92.66,4.17,4.17,0,0,0-.25.78c-.7,3.3-1.39,6.62-2.09,9.92q-.84,4-1.69,8-1.17,5.43-2.35,10.86c-.11.49-.2,1-.34,1.46-.32,1.18-.74,1.5-2,1.52-.64,0-1.29,0-1.94-.06s-1.59,0-2.39-.06h-.74c-.75,0-1-.39-.92-1.11a3.43,3.43,0,0,1,.09-.44c.46-2.11.93-4.22,1.39-6.34.93-4.3,1.88-8.6,2.8-12.9.7-3.28,1.38-6.57,2.07-9.86.1-.46.22-.91.33-1.37a2.29,2.29,0,0,0,.09-.44.46.46,0,0,0-.39-.54,4.73,4.73,0,0,0-.75-.05l-4.18,0-4.63,0a3,3,0,0,1-.89-.08.72.72,0,0,1-.57-.84,4.33,4.33,0,0,1,.19-.79,20.49,20.49,0,0,0,.82-3.79,3.34,3.34,0,0,1,.1-.43,1.14,1.14,0,0,1,1.12-.93c.32,0,.65,0,1,0Z"/><path class="cls-1" d="M268.33,42.84c-2-.06-3.83-.05-5.66-.25a7,7,0,0,1-2.57-.73,5.46,5.46,0,0,1-3-4.34,7.33,7.33,0,0,1,.39-3.15,1.28,1.28,0,0,1,1.34-1h4.63l.3,0a.75.75,0,0,1,.72.73c.05.4.1.79.12,1.19a6.75,6.75,0,0,0,.19,1.18,1.57,1.57,0,0,0,1.45,1.3,12.79,12.79,0,0,0,1.63.13,12.59,12.59,0,0,0,1.94-.07,10.58,10.58,0,0,1,1.49,0,7.86,7.86,0,0,0,2.22-.21,3.93,3.93,0,0,0,3-2.77,4.88,4.88,0,0,0,.22-1.7,1.9,1.9,0,0,0-1.47-1.92,9.58,9.58,0,0,0-2.07-.3c-1.29-.08-2.58-.11-3.87-.2-1.59-.11-3.19-.16-4.76-.42a9.44,9.44,0,0,1-2.65-.75,3.5,3.5,0,0,1-2.09-2.88,12.06,12.06,0,0,1,.08-3.12A14.87,14.87,0,0,1,261,19.38a7.63,7.63,0,0,1,3.41-3.83,8.81,8.81,0,0,1,2.69-.86,38.7,38.7,0,0,1,13.81,0,6,6,0,0,1,2.22.86,4.57,4.57,0,0,1,2.05,3.48,9.58,9.58,0,0,1,0,1.93,2.71,2.71,0,0,1-.11.51,1,1,0,0,1-.91.77,3,3,0,0,1-.52,0l-3.89,0a5,5,0,0,1-.67,0,1,1,0,0,1-.94-1,4.7,4.7,0,0,1,0-.75,1.05,1.05,0,0,0-.58-1.05,1.91,1.91,0,0,0-.76-.29,17.29,17.29,0,0,0-4.6-.25c-.82.09-1.63.21-2.44.36a3.16,3.16,0,0,0-2.07,1.35,4.2,4.2,0,0,0-.91,2.7A1.64,1.64,0,0,0,268.11,25a3.06,3.06,0,0,0,.51.1c1.39.11,2.78.22,4.17.31,1.64.11,3.28.18,4.92.3a10.21,10.21,0,0,1,2.77.58,6.25,6.25,0,0,1,1.14.54A4.12,4.12,0,0,1,283.38,29a5.32,5.32,0,0,1,.32,1.68,15.15,15.15,0,0,1-1.05,6,8.59,8.59,0,0,1-5.3,5.12,13.26,13.26,0,0,1-3,.67,49.24,49.24,0,0,1-5.29.32C268.78,42.81,268.48,42.84,268.33,42.84Z"/><path class="cls-1" d="M165.63,14.24c.82,0,1.65,0,2.47,0a16.3,16.3,0,0,1,4.32.74,7,7,0,0,1,1.51.65,4.37,4.37,0,0,1,2.16,3,6.65,6.65,0,0,1,.17,1.48c0,.75,0,1.49,0,2.24a3.37,3.37,0,0,1-.15.95,1.23,1.23,0,0,1-1,.93,4.58,4.58,0,0,1-1.11.16h-3.36l-.3,0a1,1,0,0,1-1-1c0-.32-.07-.64-.1-1s0-.45,0-.67a2,2,0,0,0-1.72-1.91,13.91,13.91,0,0,0-3.69-.44,10.89,10.89,0,0,0-2.78.49,4.39,4.39,0,0,0-2.92,2.68,9.49,9.49,0,0,0-.43,1.27c-.72,2.79-1.39,5.6-1.84,8.45a11.75,11.75,0,0,0-.22,2.37,2.4,2.4,0,0,0,1.77,2.41,4.1,4.1,0,0,0,.5.14,12.29,12.29,0,0,0,3.26.21c.74-.07,1.49-.08,2.23-.19a3.82,3.82,0,0,0,3-2,8.1,8.1,0,0,0,.53-1.39q.19-.69.45-1.35a1.15,1.15,0,0,1,1-.8,7.43,7.43,0,0,1,.81-.09h4a1.82,1.82,0,0,1,.66.09.54.54,0,0,1,.4.56,1.92,1.92,0,0,1-.11.58c-.14.46-.27.91-.38,1.37a14.77,14.77,0,0,1-1.09,2.93,9.46,9.46,0,0,1-6.33,5,17,17,0,0,1-3.17.46c-1.79.12-3.58.18-5.37.15a20.12,20.12,0,0,1-4.57-.62,7.38,7.38,0,0,1-1.75-.65,4.81,4.81,0,0,1-2.49-3.28,5.07,5.07,0,0,1-.14-.95A32.35,32.35,0,0,1,149,32a38.41,38.41,0,0,1,1.84-7.9q.62-1.8,1.38-3.54a9.48,9.48,0,0,1,5.58-5.29,17.48,17.48,0,0,1,3.85-.88A31.76,31.76,0,0,1,165.63,14.24Z"/><path class="cls-1" d="M304.67,14.55h3.95a2.52,2.52,0,0,1,.82.09.54.54,0,0,1,.43.67,1.11,1.11,0,0,1-.08.37,9.14,9.14,0,0,0-.54,1.78c-.11.38-.2.77-.33,1.15a1.4,1.4,0,0,1-1.53,1.15c-.5,0-1,0-1.49,0h-5.46a8.42,8.42,0,0,0-1.33.11,1.33,1.33,0,0,0-1.12.87,6.5,6.5,0,0,0-.25.86c-.5,2.36-1,4.72-1.48,7.08-.43,2.12-.85,4.25-1.28,6.37a3.87,3.87,0,0,0-.1,1,1.18,1.18,0,0,0,.9,1.22,4.25,4.25,0,0,0,1.77.21,3.31,3.31,0,0,0,2.94-2.08,13.61,13.61,0,0,0,.53-1.47c.15-.45.3-.9.47-1.34a1.39,1.39,0,0,1,1.18-.92,6,6,0,0,1,.74-.07c1,0,2,0,3,0s1.24.3,1,1.24a21.08,21.08,0,0,1-2,5.62,7.61,7.61,0,0,1-5,3.86,18.79,18.79,0,0,1-5.17.59,20.54,20.54,0,0,1-4.28-.6,5.45,5.45,0,0,1-1.18-.46,4,4,0,0,1-2.12-2.91,5.91,5.91,0,0,1,.06-2.37q.9-4.5,1.83-9c.43-2.07.88-4.14,1.32-6.21a3,3,0,0,0,.08-.51c0-.72-.29-1-1-1.06a3.64,3.64,0,0,0-.74.05,1.83,1.83,0,0,1-.74-.06.7.7,0,0,1-.59-.75,1.47,1.47,0,0,1,.08-.51,7.69,7.69,0,0,0,.35-1.83,3.66,3.66,0,0,1,.35-1.21,1.6,1.6,0,0,1,1.48-1c.35,0,.7,0,1,0a1.09,1.09,0,0,0,1.36-.95c.17-.63.27-1.27.39-1.9s.23-1.33.35-2a3.63,3.63,0,0,1,.16-.65,1.09,1.09,0,0,1,1-.78,3.38,3.38,0,0,1,.45,0h4.7c.63.05.91.37.78,1-.24,1.24-.51,2.48-.77,3.72-.05.22-.12.44-.15.66a.69.69,0,0,0,.65.89,5,5,0,0,0,.67,0h3.89Z"/><path class="cls-1" d="M227.8,2.57h2.8c.71.09,1,.38.85,1.11-.08.54-.18,1.08-.3,1.61s-.28,1.16-.43,1.74-.33.79-1,.78c-.8,0-1.59.07-2.38.13a6.18,6.18,0,0,0-1.54.3A3.09,3.09,0,0,0,223.9,9.9a8.62,8.62,0,0,0-.56,1.46c-.19.67-.36,1.35-.55,2a1.42,1.42,0,0,0,0,.22c-.11.66.09.91.78,1h4.78c.72,0,.95.27.86,1a16,16,0,0,1-.61,2.84,1.75,1.75,0,0,1-1.49,1.3,5.56,5.56,0,0,1-.81.08c-.85,0-1.7,0-2.54,0a12.1,12.1,0,0,0-1.34.11,1.26,1.26,0,0,0-1.14.93,15.84,15.84,0,0,0-.42,1.81c-.57,2.78-1.12,5.56-1.7,8.33-.51,2.48-1.06,5-1.6,7.43-.22,1-.45,2-.67,3,0,.09-.05.19-.07.29a1.07,1.07,0,0,1-1.11.91h-.37c-1.4-.07-2.79,0-4.18,0a2.29,2.29,0,0,1-.74,0c-.37-.1-.52-.26-.52-.63a3.72,3.72,0,0,1,.09-.81q1.51-7,3-14,.65-2.91,1.27-5.83a3.91,3.91,0,0,0,.1-.58.76.76,0,0,0-.82-.92c-.17,0-.34,0-.52,0-.5,0-1,0-1.49,0a.69.69,0,0,1-.71-.84,2.41,2.41,0,0,1,.07-.37c.21-1,.43-2,.64-3.06.15-.66.39-.89,1.07-.93.52,0,1,0,1.56,0a6,6,0,0,0,.74-.09,1.07,1.07,0,0,0,.86-.75,7.11,7.11,0,0,0,.27-.93,35,35,0,0,1,1.48-5,7.35,7.35,0,0,1,4.25-4.36,10.08,10.08,0,0,1,1.78-.52,13.17,13.17,0,0,1,3.19-.29A4.71,4.71,0,0,0,227.8,2.57Z"/><path class="cls-1" d="M308.79,6.14h-1.13V1.21h-1.73v-1h4.59v1h-1.73Z"/><path class="cls-1" d="M316.4,6.14h-1L313.52,1.2h0l.1,4.94h-1.13V.25h1.81l1.6,4.37h0L317.47.25h1.86V6.14H318.2l.09-5h0Z"/><path class="cls-1" d="M114.54,52.21,112.1,63h-2l2-9-3.42,2.77-.92-1.32L112,52.21Z"/><path class="cls-1" d="M126.29,52.21l-.44,2L119.52,63h-2.28l6.62-9h-6l.39-1.72Z"/><path class="cls-1" d="M132.7,55.44l-.31,1.37h-2.9l-.86,3.78c-.16.7,0,1,.56,1s1-.42,1.16-1.27l.07-.3H132l-.09.38c-.08.35-.15.65-.23.89-.36,1.15-1.35,1.73-3,1.73s-2.25-.74-1.91-2.22l.91-4h-1l.31-1.37h1l.38-1.69h1.81l-.38,1.69Z"/><path class="cls-1" d="M136.53,52.21l-1,4.47h0a2.83,2.83,0,0,1,2.62-1.34c1.76,0,2.45.83,2.08,2.5L139.1,63h-1.81l1.05-4.63,0-.25q.3-1.32-1-1.32a2.16,2.16,0,0,0-2.27,1.91l-1,4.29h-1.81l2.44-10.77Z"/><path class="cls-1" d="M141.12,58h3.6l-.39,1.72h-3.6Z"/><path class="cls-1" d="M153.15,52.21,150.72,63h-2l2-9-3.43,2.77-.92-1.32,4.21-3.24Z"/><path class="cls-1" d="M155.17,59.94h2c-.15.68-.14,1.1.05,1.26a3.57,3.57,0,0,0,1.71.23,3.74,3.74,0,0,0,2-.32,3.71,3.71,0,0,0,.75-1.83l.35-1.57h0a3.11,3.11,0,0,1-2.71,1.06c-1.47,0-2.41-.21-2.82-.62s-.48-1.23-.2-2.44a4.92,4.92,0,0,1,1.43-2.85,5.5,5.5,0,0,1,3.26-.73c2,0,3.16.28,3.5.85s.25,2.05-.3,4.46c-.58,2.59-1.17,4.18-1.75,4.76s-1.87.87-3.87.87a5.22,5.22,0,0,1-3-.58c-.48-.39-.6-1.12-.36-2.18Zm5.44-6.17a3.24,3.24,0,0,0-1.67.29,2.48,2.48,0,0,0-.66,1.4c-.17.74-.16,1.21,0,1.39a2.93,2.93,0,0,0,1.66.28,4.12,4.12,0,0,0,1.88-.27,2.05,2.05,0,0,0,.66-1.31c.18-.8.17-1.3,0-1.49A3.37,3.37,0,0,0,160.61,53.77Z"/><path class="cls-1" d="M171.32,55.44,171,56.81h-2.9l-.86,3.78c-.15.7,0,1,.56,1s1-.42,1.16-1.27l.07-.3h1.54l-.09.38a7.52,7.52,0,0,1-.23.89c-.36,1.15-1.35,1.73-3,1.73s-2.24-.74-1.91-2.22l.91-4h-1l.31-1.37h1l.38-1.69h1.81l-.38,1.69Z"/><path class="cls-1" d="M175.15,52.21l-1,4.47h0a2.83,2.83,0,0,1,2.62-1.34c1.76,0,2.46.83,2.08,2.5L177.72,63h-1.8l1-4.63.06-.25q.3-1.32-1.05-1.32a2.16,2.16,0,0,0-2.28,1.91l-1,4.29h-1.8l2.43-10.77Z"/><path class="cls-1" d="M183.59,63,186,52.21h5.29c1.5,0,2.48.33,2.93,1s.5,1.81.13,3.45c-.61,2.69-1.24,4.41-1.9,5.18A4.5,4.5,0,0,1,188.94,63ZM186,61.26h2.91a2.58,2.58,0,0,0,2-.68,7.7,7.7,0,0,0,1.11-3,7.18,7.18,0,0,0,.29-3c-.16-.43-.71-.65-1.66-.65h-3Z"/><path class="cls-1" d="M199.77,60.56h1.82l-.07.29c-.33,1.48-1.6,2.21-3.81,2.21-1.5,0-2.42-.25-2.77-.76s-.33-1.59,0-3.24a5.5,5.5,0,0,1,1.39-3,4.7,4.7,0,0,1,3-.76c1.35,0,2.2.25,2.54.74s.36,1.46,0,2.9l-.12.55h-5.1q-.08.26-.09.33c-.17.74-.17,1.24,0,1.48s.6.37,1.28.37a2.89,2.89,0,0,0,1.34-.21A1.46,1.46,0,0,0,199.77,60.56Zm.5-2.13.06-.3c.14-.6.12-1-.05-1.17s-.59-.27-1.29-.27a2.14,2.14,0,0,0-1.38.33,2.72,2.72,0,0,0-.63,1.41Z"/><path class="cls-1" d="M208,60.1h1.8l-.06.26-.37,1.14c-.46,1-1.65,1.56-3.59,1.56-1.42,0-2.3-.25-2.65-.77s-.36-1.54,0-3.09a6,6,0,0,1,1.4-3.06,4.26,4.26,0,0,1,2.9-.79,3.75,3.75,0,0,1,2.52.57c.38.38.45,1.11.21,2.18h-1.79c.19-.88-.21-1.32-1.23-1.32a1.92,1.92,0,0,0-1.45.42,5.42,5.42,0,0,0-.74,2,3.87,3.87,0,0,0-.14,2c.14.27.6.41,1.39.41a2.08,2.08,0,0,0,1.26-.28A2.47,2.47,0,0,0,208,60.1Z"/><path class="cls-1" d="M215.87,60.56h1.81l-.06.29c-.33,1.48-1.6,2.21-3.81,2.21-1.5,0-2.42-.25-2.77-.76s-.33-1.59,0-3.24a5.5,5.5,0,0,1,1.39-3,4.7,4.7,0,0,1,3-.76c1.35,0,2.2.25,2.54.74s.36,1.46,0,2.9l-.12.55h-5.1q-.07.26-.09.33c-.17.74-.17,1.24,0,1.48s.6.37,1.28.37a2.89,2.89,0,0,0,1.34-.21A1.46,1.46,0,0,0,215.87,60.56Zm.5-2.13.06-.3c.14-.6.12-1-.05-1.17a2,2,0,0,0-1.29-.27,2.19,2.19,0,0,0-1.39.33,2.73,2.73,0,0,0-.62,1.41Z"/><path class="cls-1" d="M220.35,55.44h1.8l-.31,1.16h0a2.89,2.89,0,0,1,2.59-1.26c1.36,0,2,.47,1.95,1.4h0a2.89,2.89,0,0,1,2.65-1.4c1.74,0,2.41.88,2,2.63L230,63h-1.81l1-4.6c.24-1.07-.07-1.6-.95-1.6a2,2,0,0,0-2.05,1.79l-1,4.41h-1.8l1.05-4.67a2,2,0,0,0,0-1.24c-.12-.19-.45-.29-1-.29a2,2,0,0,0-2.07,1.83l-1,4.37h-1.8Z"/><path class="cls-1" d="M231.84,63l2.43-10.77h1.8l-1,4.31h0a2.82,2.82,0,0,1,2.62-1.19c1.08,0,1.77.27,2.05.8a4.77,4.77,0,0,1-.06,2.93,6.94,6.94,0,0,1-1.33,3.17,3.38,3.38,0,0,1-2.53.82c-1.17,0-1.84-.42-2-1.28h0l-.19,1.2Zm5-6.21c-1.17,0-1.92.73-2.25,2.18a4.76,4.76,0,0,0-.19,2.2c.12.32.54.49,1.24.49a2,2,0,0,0,1.51-.45,5,5,0,0,0,.77-2,3.8,3.8,0,0,0,.14-1.93C237.9,56.92,237.5,56.77,236.82,56.77Z"/><path class="cls-1" d="M245.77,60.56h1.82l-.07.29c-.33,1.48-1.6,2.21-3.81,2.21-1.5,0-2.42-.25-2.77-.76s-.33-1.59,0-3.24a5.43,5.43,0,0,1,1.4-3,4.67,4.67,0,0,1,3-.76c1.34,0,2.19.25,2.53.74s.36,1.46,0,2.9l-.13.55h-5.1q-.08.26-.09.33a2.06,2.06,0,0,0,0,1.48c.17.25.6.37,1.28.37a2.89,2.89,0,0,0,1.34-.21A1.38,1.38,0,0,0,245.77,60.56Zm.5-2.13.06-.3c.14-.6.12-1-.05-1.17s-.59-.27-1.29-.27a2.14,2.14,0,0,0-1.38.33,2.65,2.65,0,0,0-.62,1.41Z"/><path class="cls-1" d="M250.3,55.44h1.8l-.34,1.05h0a2.79,2.79,0,0,1,2.3-1.18c1.33,0,1.8.84,1.42,2.51l-.12.53h-1.7a3.1,3.1,0,0,0,.12-.41c.19-.8,0-1.2-.66-1.2-.89,0-1.48.59-1.75,1.79l-1,4.44h-1.8Z"/><path class="cls-1" d="M257.58,61l-.42,1.87c-.29,1.26-1,1.89-2.05,1.89l-.33,0,.19-.84a.91.91,0,0,0,1-.73l.05-.23h-.71l.44-1.94Z"/><path class="cls-1" d="M271.54,61.36,271.18,63H263l.49-2.2a3.84,3.84,0,0,1,1.13-2.26,8.06,8.06,0,0,1,3.12-1,7.88,7.88,0,0,0,2.39-.62,2.41,2.41,0,0,0,.68-1.44c.17-.75.16-1.22,0-1.42s-.72-.3-1.6-.3a3.45,3.45,0,0,0-1.78.3,2.59,2.59,0,0,0-.69,1.48l-.1.46h-2l.1-.45a4.41,4.41,0,0,1,1.45-2.73,6.09,6.09,0,0,1,3.4-.7c1.56,0,2.57.23,3,.71s.53,1.37.23,2.69A4.53,4.53,0,0,1,271.65,58a7.47,7.47,0,0,1-3.18,1.06,9.31,9.31,0,0,0-2.34.59,2.37,2.37,0,0,0-.62,1.38l-.06.29Z"/><path class="cls-1" d="M279.76,52.13c2,0,3.13.29,3.46.87s.22,2.11-.34,4.59-1.14,4-1.74,4.6-1.87.87-3.85.87-3.13-.29-3.46-.87-.22-2.12.34-4.6,1.14-4,1.73-4.59S277.78,52.13,279.76,52.13Zm-.55,1.75a3,3,0,0,0-1.88.4,3.81,3.81,0,0,0-.81,1.91l-.33,1.41-.28,1.31c-.25,1.09-.27,1.76-.08,2s.82.38,1.88.38,1.8-.18,2.1-.54a10.12,10.12,0,0,0,1.06-3.24,8.55,8.55,0,0,0,.41-3.19C281.14,54,280.45,53.88,279.21,53.88Z"/><path class="cls-1" d="M291.8,61.36,291.44,63H283.3l.5-2.2a3.84,3.84,0,0,1,1.12-2.26,8.06,8.06,0,0,1,3.12-1,7.88,7.88,0,0,0,2.39-.62,2.41,2.41,0,0,0,.68-1.44c.17-.75.16-1.22,0-1.42s-.72-.3-1.6-.3a3.47,3.47,0,0,0-1.78.3,2.59,2.59,0,0,0-.69,1.48l-.1.46h-2l.1-.45a4.41,4.41,0,0,1,1.45-2.73,6.11,6.11,0,0,1,3.4-.7c1.56,0,2.57.23,3,.71s.53,1.37.23,2.69A4.47,4.47,0,0,1,291.91,58a7.47,7.47,0,0,1-3.18,1.06,9.31,9.31,0,0,0-2.34.59,2.37,2.37,0,0,0-.62,1.38l-.06.29Z"/><path class="cls-1" d="M302.07,52.21,299.64,63h-2l2-9-3.43,2.77-.91-1.32,4.21-3.24Z"/></g></g></svg>